# Blender v2.92.0 OBJ File: ''
# www.blender.org
mtllib chest.mtl
o polySurface2_メッシュ
v -0.046353 0.000677 0.070412
v 0.046353 0.000677 0.070412
v -0.046353 0.072227 0.070412
v 0.046353 0.072227 0.070412
v -0.038783 0.008633 0.062839
v 0.038783 0.008633 0.062839
v -0.038783 0.008633 -0.062839
v 0.038783 0.008633 -0.062839
v -0.046353 0.072227 -0.070412
v 0.046353 0.072227 -0.070412
v -0.046353 0.000677 -0.070412
v 0.046353 0.000677 -0.070412
v -0.038783 0.072227 0.062839
v 0.038783 0.072227 0.062839
v 0.038783 0.072227 -0.062839
v -0.038783 0.072227 -0.062839
v 0.034566 0.107354 0.005403
v 0.036530 0.108487 0.005403
v 0.029390 0.116331 0.005403
v 0.031354 0.117464 0.005403
v 0.029390 0.116331 -0.005403
v 0.031354 0.117464 -0.005403
v 0.034566 0.107354 -0.005403
v 0.036530 0.108487 -0.005403
v -0.046311 0.072336 0.070432
v -0.052269 0.100367 0.070432
v -0.046311 0.072336 -0.070413
v -0.052269 0.100367 -0.070413
v -0.040613 0.126546 0.070432
v -0.040613 0.126546 -0.070413
v -0.015795 0.140875 0.070432
v -0.015795 0.140875 -0.070413
v 0.012705 0.137879 0.070432
v 0.012705 0.137879 -0.070413
v 0.034001 0.118704 0.070432
v 0.034001 0.118704 -0.070413
v -0.006155 0.095520 0.070432
v -0.006155 0.095520 -0.070413
v -0.045204 0.099606 -0.062928
v -0.025567 0.129143 -0.062928
v -0.045204 0.099605 0.062946
v -0.025567 0.129143 0.062946
v -0.039623 0.076197 -0.062928
v -0.006155 0.095520 -0.062928
v 0.027313 0.114843 -0.062928
v 0.027313 0.114843 0.062946
v -0.006155 0.095520 0.062946
v -0.039623 0.076197 0.062946
v 0.009832 0.131381 -0.062928
v 0.009832 0.131381 0.062946
vt 0.759612 0.507757
vt 0.759612 0.757003
vt 0.951977 0.507757
vt 0.951977 0.757003
vt 0.731223 0.989876
vt 0.731223 0.836479
vt 0.979771 0.989876
vt 0.979771 0.836479
vt 0.951977 0.507757
vt 0.951977 0.757003
vt 0.759612 0.507757
vt 0.759612 0.757003
vt 0.338223 0.989876
vt 0.338223 0.848637
vt 0.552767 0.989876
vt 0.552767 0.848637
vt 0.747710 0.016665
vt 0.747710 0.430950
vt 0.537219 0.016665
vt 0.537219 0.430950
vt 0.979771 0.016665
vt 0.979771 0.430950
vt 0.769279 0.016665
vt 0.769279 0.430950
vt 0.979771 0.821685
vt 0.730525 0.821685
vt 0.959417 0.801326
vt 0.750879 0.801326
vt 0.730525 0.443075
vt 0.750879 0.463434
vt 0.979771 0.443075
vt 0.959417 0.463434
vt 0.717993 0.989876
vt 0.564596 0.989876
vt 0.717993 0.864109
vt 0.564596 0.864110
vt 0.632731 0.661531
vt 0.384183 0.661531
vt 0.632731 0.535765
vt 0.384183 0.535765
vt 0.717993 0.989876
vt 0.564596 0.989876
vt 0.717993 0.864109
vt 0.564596 0.864109
vt 0.384183 0.661531
vt 0.632731 0.661531
vt 0.384183 0.535765
vt 0.632731 0.535765
vt 0.598894 0.463137
vt 0.614539 0.463137
vt 0.598894 0.523700
vt 0.614539 0.523700
vt 0.598894 0.523700
vt 0.614539 0.523700
vt 0.598894 0.463137
vt 0.614539 0.463137
vt 0.704888 0.442025
vt 0.704888 0.458724
vt 0.619831 0.442025
vt 0.619830 0.458724
vt 0.619537 0.463137
vt 0.705182 0.463137
vt 0.619537 0.523700
vt 0.705182 0.523700
vt 0.619537 0.463137
vt 0.705182 0.463137
vt 0.619537 0.523700
vt 0.705182 0.523700
vt 0.505722 0.489006
vt 0.412479 0.489006
vt 0.505722 0.014970
vt 0.412479 0.014970
vt 0.315431 0.489006
vt 0.315431 0.014970
vt 0.203774 0.489006
vt 0.203774 0.014970
vt 0.106726 0.489006
vt 0.106726 0.014970
vt 0.013483 0.489006
vt 0.013483 0.014970
vt 0.632394 0.775969
vt 0.662198 0.684241
vt 0.506140 0.684241
vt 0.554365 0.832661
vt 0.457915 0.832661
vt 0.379886 0.775970
vt 0.350081 0.684241
vt 0.662198 0.684241
vt 0.632394 0.775969
vt 0.506140 0.684241
vt 0.554364 0.832661
vt 0.457915 0.832661
vt 0.379886 0.775969
vt 0.350081 0.684241
vt 0.097171 0.543569
vt 0.168699 0.543569
vt 0.097171 0.813991
vt 0.168699 0.813991
vt 0.014414 0.507209
vt 0.170472 0.507209
vt 0.040405 0.532403
vt 0.170472 0.532403
vt 0.326530 0.507209
vt 0.300539 0.532403
vt 0.326530 0.981244
vt 0.300539 0.956050
vt 0.170472 0.981244
vt 0.170472 0.956050
vt 0.014414 0.981244
vt 0.040405 0.956050
vt 0.057291 0.831980
vt 0.170930 0.831980
vt 0.077493 0.899799
vt 0.170930 0.946146
vt 0.284570 0.831980
vt 0.262165 0.899799
vt 0.286511 0.543569
vt 0.286511 0.813991
vt 0.240226 0.543569
vt 0.240227 0.813991
vt 0.057264 0.831980
vt 0.170904 0.831980
vt 0.077466 0.899799
vt 0.170904 0.946145
vt 0.284885 0.831980
vt 0.262463 0.899799
vt 0.050886 0.813991
vt 0.050886 0.543569
vn 0.0000 -0.0000 1.0000
vn 0.0000 1.0000 0.0000
vn 0.0000 0.0000 -1.0000
vn 0.0000 -1.0000 -0.0000
vn 1.0000 -0.0000 0.0000
vn -1.0000 0.0000 0.0000
vn 0.4997 -0.8662 0.0000
vn 0.5001 -0.8660 -0.0000
vn 0.8663 0.4995 0.0000
vn -0.8663 -0.4995 0.0000
vn -0.9781 -0.2079 -0.0000
vn -0.9135 0.4067 0.0000
vn -0.5000 0.8660 0.0000
vn 0.1045 0.9945 0.0000
vn 0.6691 0.7431 0.0000
vn 0.8328 -0.5536 -0.0000
vn 0.5000 -0.8660 -0.0000
vn -0.6872 -0.7264 -0.0000
vn 0.9727 0.2319 0.0000
vn 0.0631 -0.9980 -0.0000
usemtl TreasureBox.001
s 1
f 1/1/1 2/2/1 3/3/1
f 3/3/1 2/2/1 4/4/1
f 5/5/2 6/6/2 7/7/2
f 7/7/2 6/6/2 8/8/2
f 9/9/3 10/10/3 11/11/3
f 11/11/3 10/10/3 12/12/3
f 11/13/4 12/14/4 1/15/4
f 1/15/4 12/14/4 2/16/4
f 2/17/5 12/18/5 4/19/5
f 4/19/5 12/18/5 10/20/5
f 11/21/6 1/22/6 9/23/6
f 9/23/6 1/22/6 3/24/6
f 3/25/2 4/26/2 13/27/2
f 13/27/2 4/26/2 14/28/2
f 4/26/2 10/29/2 14/28/2
f 14/28/2 10/29/2 15/30/2
f 10/29/2 9/31/2 15/30/2
f 15/30/2 9/31/2 16/32/2
f 9/31/2 3/25/2 16/32/2
f 16/32/2 3/25/2 13/27/2
f 13/33/3 14/34/3 5/35/3
f 5/35/3 14/34/3 6/36/3
f 14/37/6 15/38/6 6/39/6
f 6/39/6 15/38/6 8/40/6
f 15/41/1 16/42/1 8/43/1
f 8/43/1 16/42/1 7/44/1
f 16/45/5 13/46/5 7/47/5
f 7/47/5 13/46/5 5/48/5
f 17/49/1 18/50/1 19/51/1
f 19/51/1 18/50/1 20/52/1
f 21/53/3 22/54/3 23/55/3
f 23/55/3 22/54/3 24/56/3
f 23/57/7 24/58/7 17/59/7
f 17/59/7 24/58/7 18/60/8
f 18/61/9 24/62/9 20/63/9
f 20/63/9 24/62/9 22/64/9
f 23/65/10 17/66/10 21/67/10
f 21/67/10 17/66/10 19/68/10
f 25/69/11 26/70/11 27/71/11
f 27/71/11 26/70/11 28/72/11
f 26/70/12 29/73/12 28/72/12
f 28/72/12 29/73/12 30/74/12
f 29/73/13 31/75/13 30/74/13
f 30/74/13 31/75/13 32/76/13
f 31/75/14 33/77/14 32/76/14
f 32/76/14 33/77/14 34/78/14
f 33/77/15 35/79/15 34/78/15
f 34/78/15 35/79/15 36/80/15
f 26/81/1 25/82/1 37/83/1
f 29/84/1 26/81/1 37/83/1
f 31/85/1 29/84/1 37/83/1
f 33/86/1 31/85/1 37/83/1
f 35/87/1 33/86/1 37/83/1
f 27/88/3 28/89/3 38/90/3
f 28/89/3 30/91/3 38/90/3
f 30/91/3 32/92/3 38/90/3
f 32/92/3 34/93/3 38/90/3
f 34/93/3 36/94/3 38/90/3
f 39/95/16 40/96/17 41/97/16
f 41/97/16 40/96/17 42/98/17
f 27/99/17 38/100/17 43/101/17
f 43/101/17 38/100/17 44/102/17
f 36/103/17 45/104/17 38/100/17
f 38/100/17 45/104/17 44/102/17
f 36/103/17 35/105/17 45/104/17
f 45/104/17 35/105/17 46/106/17
f 35/105/17 37/107/17 46/106/17
f 46/106/17 37/107/17 47/108/17
f 25/109/17 48/110/17 37/107/17
f 37/107/17 48/110/17 47/108/17
f 25/109/17 27/99/17 48/110/17
f 48/110/17 27/99/17 43/101/17
f 43/111/1 44/112/1 39/113/1
f 39/113/1 44/112/1 40/114/1
f 45/115/1 49/116/1 44/112/1
f 44/112/1 49/116/1 40/114/1
f 45/117/18 46/118/18 49/119/18
f 49/119/18 46/118/18 50/120/18
f 46/121/3 47/122/3 50/123/3
f 50/123/3 47/122/3 42/124/3
f 48/125/3 41/126/3 47/122/3
f 47/122/3 41/126/3 42/124/3
f 48/127/19 43/128/19 41/97/19
f 41/97/19 43/128/19 39/95/19
f 42/98/17 40/96/17 50/120/20
f 50/120/20 40/96/17 49/119/20
