# Blender v2.92.0 OBJ File: ''
# www.blender.org
mtllib map.mtl
o å¹³é¢.004
v -11.362388 0.000000 -3.600117
v -5.052855 0.000000 -3.600117
v -11.362388 0.000000 -8.924318
v -5.052855 0.000000 -8.924318
v 1.000000 -0.015377 3.509134
v 1.000000 -2.015377 3.509134
v 1.000000 -0.015377 5.509134
v 1.000000 -2.015377 5.509134
v -1.000000 -0.015377 3.509134
v -1.000000 -2.015377 3.509134
v -1.000000 -0.015377 5.509134
v -1.000000 -2.015377 5.509134
v -3.154766 0.000000 2.662101
v 3.154766 0.000000 2.662101
v -3.154766 0.000000 -2.662100
v 3.154766 0.000000 -2.662100
v -3.154766 0.000000 -3.525047
v 3.154766 0.000000 -3.525047
v -3.154766 0.000000 -8.849247
v 3.154766 0.000000 -8.849247
v -11.363742 0.000000 2.662101
v -5.054210 0.000000 2.662101
v -11.363742 0.000000 -2.662100
v -5.054210 0.000000 -2.662100
v 4.084762 0.000000 2.662101
v 10.394294 0.000000 2.662101
v 4.084762 0.000000 -2.662100
v 10.394294 0.000000 -2.662100
vt 1.000000 0.000000
vt 0.000000 1.000000
vt 0.000000 0.000000
vt 1.000000 1.000000
vt 0.000000 0.000000
vt 0.000000 0.000000
vt 0.000000 0.000000
vt 0.000000 0.000000
vt 0.000000 0.000000
vt 0.000000 0.000000
vt 0.000000 0.000000
vt 0.000000 0.000000
vt 1.000000 0.000000
vt 0.000000 1.000000
vt 0.000000 0.000000
vt 1.000000 1.000000
vt 1.000000 0.000000
vt 0.000000 1.000000
vt 0.000000 0.000000
vt 1.000000 1.000000
vt 1.000000 0.000000
vt 0.000000 1.000000
vt 0.000000 0.000000
vt 1.000000 1.000000
vt 1.000000 0.000000
vt 0.000000 1.000000
vt 0.000000 0.000000
vt 1.000000 1.000000
vn 0.0000 1.0000 0.0000
vn 0.0000 0.0000 1.0000
vn -1.0000 0.0000 0.0000
vn 0.0000 -1.0000 0.0000
vn 1.0000 0.0000 0.0000
vn 0.0000 0.0000 -1.0000
usemtl Material
s off
f 2/1/1 3/2/1 1/3/1
f 2/1/1 4/4/1 3/2/1
f 9/5/1 7/6/1 5/7/1
f 7/6/2 12/8/2 8/9/2
f 11/10/3 10/11/3 12/8/3
f 6/12/4 12/8/4 10/11/4
f 5/7/5 8/9/5 6/12/5
f 9/5/6 6/12/6 10/11/6
f 9/5/1 11/10/1 7/6/1
f 7/6/2 11/10/2 12/8/2
f 11/10/3 9/5/3 10/11/3
f 6/12/4 8/9/4 12/8/4
f 5/7/5 7/6/5 8/9/5
f 9/5/6 5/7/6 6/12/6
f 14/13/1 15/14/1 13/15/1
f 14/13/1 16/16/1 15/14/1
f 18/17/1 19/18/1 17/19/1
f 18/17/1 20/20/1 19/18/1
f 22/21/1 23/22/1 21/23/1
f 22/21/1 24/24/1 23/22/1
f 26/25/1 27/26/1 25/27/1
f 26/25/1 28/28/1 27/26/1
